# Blender 3.4.1
# www.blender.org
mtllib TaxiCar.mtl
o Checker.002
v 2.028874 0.555742 0.047498
v -0.982269 0.184409 0.047498
v 3.544162 -0.833717 0.047498
v 1.431735 -0.994795 0.040490
v 3.284399 -0.097841 0.047498
v 0.755886 -0.994795 0.044797
v 0.755886 0.663053 0.047498
v -2.427445 -0.500613 0.047498
v 3.366828 -0.458633 0.047498
v 2.446431 0.144169 0.047498
v -0.577911 0.667911 0.047498
v -2.235515 -0.004095 0.047498
v -2.427445 -0.216730 0.047498
v -0.692020 -0.994795 0.051615
v 2.191610 -0.543927 -1.234768
v 1.577461 0.073726 -1.070274
v 2.281833 -0.992563 -1.234769
v 2.155993 -0.150615 -1.242443
v 0.755886 -0.619013 -1.242873
v 0.755886 0.663053 -0.609738
v 0.755886 0.073984 -1.070275
v 0.755886 0.502691 -0.828063
v 0.755886 -0.167004 -1.249878
v 0.755886 -0.994795 -1.239545
v -2.587495 -0.833717 -0.575306
v -2.427445 -0.500612 -0.575306
v -2.427445 -0.500612 -1.217768
v 3.366828 -0.508182 -1.221397
v -2.032820 -1.205764 -1.318278
v -1.112764 -1.205764 -1.318278
v -2.032820 -0.381584 -1.318277
v -1.112764 -0.381584 -1.318277
v 1.801283 -1.205764 -1.203742
v 2.721338 -1.205764 -1.203742
v 1.801283 -0.381584 -1.203742
v 2.721338 -0.381584 -1.203742
v 1.431735 -0.994795 1.344873
v -2.489538 0.031159 1.267864
v 3.258234 0.054814 1.165270
v -0.692020 -0.192949 1.344874
v 1.457222 -0.150616 1.344873
v -2.427445 -0.216731 1.330859
v 3.284399 -0.176651 1.330859
v -0.692020 -0.994795 1.318182
v 3.544162 -0.833718 1.316392
v -2.587495 -0.833718 1.304168
v -0.101355 0.520248 0.913185
v -0.418257 0.636170 0.748249
v -0.822615 0.152667 0.952161
v -0.629159 0.074669 1.165270
v 2.028874 0.555742 0.736242
v 1.784533 0.491600 0.929295
v 2.134165 0.073551 1.165270
v 2.446431 0.144168 0.957651
v 1.480101 0.659984 0.704733
v -2.427445 -0.216730 0.670301
v -2.235515 -0.004095 0.612896
v 3.544162 -0.833717 0.939580
v 3.284399 -0.097841 0.956318
v -2.489538 0.031159 0.724992
v 3.366828 -0.458633 0.944970
v 1.439943 -0.613736 1.344874
v -0.692020 -0.627368 1.326778
v 3.366828 -0.508183 1.316392
v -2.427445 -0.500613 1.312764
v -1.978480 -1.205765 1.373190
v -1.154299 -1.205765 1.373190
v -1.978480 -0.381584 1.373190
v -1.154299 -0.381584 1.373190
v 1.801283 -1.205765 1.306529
v 2.721338 -1.205765 1.306529
v 1.801283 -0.381584 1.306529
v 2.721338 -0.381584 1.306529
v -2.427445 -0.500613 0.670301
v -0.692020 -0.627368 -1.231783
v 1.439943 -0.613735 -1.249878
v -2.587495 -0.833717 0.670301
v -1.571092 -0.380410 -0.893392
v -1.961935 -0.582549 -0.893392
v -1.961935 -0.986828 -0.893392
v -1.571092 -1.188967 -0.893392
v -1.180248 -0.986828 -0.893392
v -1.180248 -0.582549 -0.893392
v -1.571092 -0.380410 -1.318278
v -1.961935 -0.582549 -1.318278
v -1.961935 -0.986827 -1.318278
v -1.571092 -1.188967 -1.318278
v -1.180248 -0.986827 -1.318278
v -1.180248 -0.582549 -1.318278
v -1.564867 -0.380411 0.948304
v -1.914982 -0.582550 0.948304
v -1.914982 -0.986828 0.948304
v -1.564867 -1.188967 0.948304
v -1.214751 -0.986828 0.948304
v -1.214751 -0.582550 0.948304
v -1.564867 -0.380411 1.373190
v -1.914982 -0.582550 1.373190
v -1.914982 -0.986828 1.373190
v -1.564867 -1.188967 1.373190
v -1.214751 -0.986828 1.373190
v -1.214751 -0.582550 1.373190
v 3.366828 -0.458633 -0.849975
v -2.489538 0.031159 -0.629996
v 3.284399 -0.097841 -0.861323
v 3.544162 -0.833717 -0.844585
v -2.235515 -0.004095 -0.517901
v -2.427445 -0.216730 -0.575306
v 0.755886 -0.994795 1.334540
v 0.755886 -0.167004 1.344874
v 0.755886 0.502690 0.923058
v 0.755886 0.073984 1.165270
v 0.755886 0.663053 0.704733
v 0.755886 -0.619013 1.337868
v 1.480101 0.659984 -0.609738
v 2.446431 0.144169 -0.862656
v 2.134165 0.073551 -1.070274
v 2.155993 -0.150616 1.337439
v 2.281833 -0.992564 1.329764
v 1.577461 0.073726 1.165270
v 2.191610 -0.543928 1.329764
v 1.784533 0.491600 -0.834300
v 2.028874 0.555742 -0.641246
v -0.629159 0.074669 -1.070275
v -0.822615 0.152668 -0.857165
v -0.418257 0.636171 -0.653253
v -0.101355 0.520248 -0.818189
v -0.692020 -0.994795 0.043380
v -2.587495 -0.833717 0.047498
v -2.587495 -0.833717 -1.209173
v 3.544162 -0.833717 -1.221397
v -0.692020 -0.994795 -1.223187
v 3.284399 -0.176650 -1.235864
v 0.755886 -0.994795 0.050198
v -2.427445 -0.216730 -1.235864
v 1.457222 -0.150615 -1.249878
v -0.692020 -0.192948 -1.249878
v 3.258234 0.054814 -1.070274
v 1.431735 -0.994795 0.054505
v -2.489538 0.031159 -1.172868
v 1.431735 -0.994795 -1.249878
v 1.480101 0.659984 0.047498
v -2.032820 -1.205765 0.948304
v -1.112764 -1.205765 0.948304
v -2.032820 -0.381584 0.948304
v -1.112764 -0.381584 0.948304
v -1.978480 -1.205764 -0.893392
v -1.154299 -1.205764 -0.893392
v -1.978480 -0.381584 -0.893392
v -1.154299 -0.381584 -0.893392
vn -0.0078 -0.7111 -0.7030
vn 0.0289 -0.7082 -0.7054
vn 0.0380 -0.9993 -0.0000
vn -0.0000 -1.0000 -0.0000
vn -0.2899 0.9171 -0.2738
vn -0.4287 0.8076 -0.4051
vn -0.4662 0.8847 -0.0000
vn -0.4420 0.8970 -0.0000
vn -0.9614 0.2262 0.1568
vn -0.9334 0.3589 -0.0000
vn 0.8686 -0.4929 0.0516
vn 0.8653 -0.5012 -0.0000
vn -0.9750 0.2221 -0.0000
vn 0.3369 0.9346 -0.1141
vn 0.5052 0.8630 -0.0000
vn 0.7268 0.6868 -0.0000
vn 0.7654 0.6435 0.0057
vn -0.0364 -0.7225 -0.6904
vn -0.0424 -0.9991 -0.0000
vn 0.7654 0.6435 -0.0057
vn 0.9455 0.3252 0.0169
vn 0.9450 0.3270 -0.0000
vn 0.5872 0.3200 -0.7435
vn 0.0118 0.3135 -0.9495
vn 0.1088 0.6789 -0.7261
vn 0.4778 0.8098 -0.3405
vn -0.0021 1.0000 -0.0000
vn 0.0015 0.9504 0.3110
vn 0.0686 0.9548 0.2894
vn 0.0958 0.9954 -0.0000
vn 0.0018 0.3224 -0.9466
vn -0.0053 0.3041 -0.9526
vn -0.0029 0.5444 -0.8388
vn 0.0003 0.5548 -0.8320
vn 0.6334 0.2203 -0.7418
vn 0.7632 -0.4204 -0.4908
vn 0.0675 -0.7597 -0.6468
vn 0.0137 -0.0084 -0.9999
vn 0.4206 0.8624 0.2818
vn 0.4644 0.8856 -0.0000
vn 0.3369 0.9346 0.1141
vn -0.4554 0.8903 -0.0000
vn 0.0015 0.9504 -0.3110
vn -0.3461 0.8621 -0.3701
vn -0.0364 -0.7225 0.6904
vn -0.7231 -0.4156 0.5518
vn -0.8683 -0.4961 -0.0000
vn 0.1220 0.7029 -0.7008
vn 0.0027 0.6651 -0.7468
vn 0.0043 -0.0045 -1.0000
vn -0.0077 -0.0140 -0.9999
vn -0.0587 0.6735 -0.7369
vn -0.6717 0.5482 0.4982
vn 0.9455 0.3252 -0.0169
vn 0.8686 -0.4929 -0.0516
vn -0.6452 0.1146 -0.7553
vn -0.7231 -0.4156 -0.5518
vn -0.8678 -0.4969 -0.0000
vn -0.2899 0.9171 0.2738
vn -0.4287 0.8076 0.4051
vn -0.9614 0.2262 -0.1568
vn -0.0080 -0.0289 -0.9995
vn -0.0003 0.2352 -0.9719
vn -0.6532 0.0850 -0.7524
vn -0.0000 -0.0000 -1.0000
vn 0.0027 0.6651 0.7468
vn -0.0587 0.6735 0.7369
vn -0.0834 0.6477 0.7573
vn -0.0029 0.5444 0.8388
vn 0.0137 -0.0084 0.9999
vn 0.0043 -0.0045 1.0000
vn 0.0289 -0.7082 0.7054
vn 0.0675 -0.7597 0.6468
vn -0.0077 -0.0140 0.9999
vn -0.0080 -0.0289 0.9995
vn -0.0078 -0.7111 0.7030
vn 0.4778 0.8098 0.3405
vn 0.1088 0.6789 0.7261
vn -0.0053 0.3041 0.9526
vn -0.0003 0.2352 0.9719
vn -0.3461 0.8621 0.3701
vn 0.1220 0.7029 0.7008
vn -0.6416 0.5819 0.4996
vn -0.6532 0.0850 0.7524
vn 0.6334 0.2203 0.7418
vn 0.7632 -0.4204 0.4908
vn 0.0118 0.3135 0.9495
vn 0.0003 0.5548 0.8320
vn 0.0018 0.3224 0.9466
vn -0.6717 0.5482 -0.4982
vn -0.6452 0.1146 0.7553
vn -0.0000 -0.0000 1.0000
vn -0.6416 0.5819 -0.4996
vn -0.0834 0.6477 -0.7573
vn 0.5872 0.3200 0.7435
vn 0.8542 -0.5199 -0.0000
vn 0.8542 0.5199 -0.0000
vn -0.8542 -0.5199 -0.0000
vn -0.0000 1.0000 -0.0000
vn -0.8542 0.5199 -0.0000
vn 0.8660 -0.5000 -0.0000
vn 0.8660 0.5000 -0.0000
vn -0.8660 -0.5000 -0.0000
vn -0.8660 0.5000 -0.0000
vn 0.0686 0.9548 -0.2894
vn 0.4206 0.8624 -0.2818
vt 0.442910 0.690560
vt 0.677161 0.404764
vt 0.706517 0.465153
vt 0.443273 0.542015
vt 0.440601 0.295254
vt 0.990219 0.590206
vt 0.840920 0.589758
vt 0.997380 0.451683
vt 0.445865 0.506499
vt 0.777009 0.590034
vt 0.622059 0.404375
vt 0.464114 0.794984
vt 0.443271 0.420757
vt 0.994368 0.290852
vt 0.442984 0.510259
vt 0.570869 0.403897
vt 0.443273 0.693651
vt 0.464114 0.996845
vt 0.997944 0.465153
vt 0.464114 0.917917
vt 0.649994 0.590469
vt 0.835189 0.082091
vt 0.679713 0.175506
vt 0.928348 0.473757
vt 0.835016 0.001996
vt 0.837169 0.143785
vt 0.555717 0.069237
vt 0.622377 0.363947
vt 0.557046 0.175203
vt 0.632988 0.347773
vt 0.556989 0.271384
vt 0.557046 0.143084
vt 0.777009 0.473452
vt 0.555960 0.001619
vt 0.205664 0.704935
vt 0.527828 0.515928
vt 0.205664 0.794984
vt 0.000598 0.794984
vt 0.000624 0.064913
vt 0.999247 0.091049
vt 0.006335 0.419920
vt 0.759916 0.998872
vt 0.999653 0.998872
vt 0.759916 0.759135
vt 0.999653 0.759135
vt 0.759916 0.998871
vt 0.999653 0.998871
vt 0.759916 0.759135
vt 0.999653 0.759135
vt 0.648233 0.003396
vt 0.840920 0.472791
vt 0.000309 0.182204
vt 0.002200 0.998106
vt 0.998758 0.293248
vt 0.678132 0.464405
vt 0.037457 0.537028
vt 0.999956 0.176724
vt 0.297758 0.143084
vt 0.651117 0.143075
vt 0.000148 0.917917
vt 0.000659 0.144350
vt 0.007057 0.487417
vt 1.000533 0.141630
vt 0.299519 0.000653
vt 0.649994 0.474498
vt 0.005797 0.299092
vt 0.990219 0.474612
vt 0.999027 0.000757
vt 0.527828 0.475394
vt 0.000683 0.002254
vt 0.000977 0.704935
vt 0.375132 0.278564
vt 0.134737 0.693651
vt 0.590576 0.345182
vt 0.570869 0.361228
vt 0.202393 0.693651
vt 0.709447 0.295302
vt 0.202393 0.542015
vt 0.134737 0.542015
vt 0.297758 0.174397
vt 0.661467 0.292695
vt 0.262234 0.690560
vt 0.677835 0.364225
vt 0.129319 0.690560
vt 0.669195 0.349410
vt 0.729594 0.277525
vt 0.691870 0.291215
vt 0.129319 0.510259
vt 0.864934 0.175712
vt 0.262234 0.510259
vt 0.724323 0.291883
vt 0.654914 0.365664
vt 0.998776 0.301070
vt 0.205665 0.917917
vt 0.226765 0.996844
vt 0.997944 0.338069
vt 0.085161 0.300145
vt 0.990219 0.498709
vt 0.079954 0.514007
vt 0.711388 0.465264
vt 0.190916 0.998106
vt 1.000280 0.294400
vt 0.086708 0.419920
vt 0.648353 0.071969
vt 0.298701 0.064913
vt 0.006335 0.419920
vt 0.999247 0.091049
vt 0.000624 0.064913
vt 0.000598 0.794984
vt 0.759916 0.759135
vt 0.999652 0.759135
vt 0.759916 0.998871
vt 0.999652 0.998871
vt 0.759916 0.759135
vt 0.999652 0.759135
vt 0.759916 0.998871
vt 0.999652 0.998871
vt 0.205664 0.794984
vt 0.298701 0.064913
vt 0.648353 0.071969
vt 0.527828 0.515928
vt 0.205664 0.704935
vt 0.770564 0.886534
vt 0.770564 0.882825
vt 0.770564 0.879115
vt 0.770564 0.875406
vt 0.770564 0.897663
vt 0.770564 0.893954
vt 0.770564 0.890244
vt 0.766665 0.886534
vt 0.766665 0.882825
vt 0.766665 0.879115
vt 0.766665 0.875406
vt 0.766665 0.897663
vt 0.766665 0.893954
vt 0.766665 0.890244
vt 0.764032 0.886307
vt 0.764032 0.890016
vt 0.764032 0.893726
vt 0.764032 0.897435
vt 0.764032 0.875178
vt 0.764032 0.878888
vt 0.764032 0.882597
vt 0.760133 0.886307
vt 0.760133 0.890016
vt 0.760133 0.893726
vt 0.760133 0.897435
vt 0.760133 0.875178
vt 0.760133 0.878888
vt 0.760133 0.882597
vt 0.086708 0.419920
vt 1.000280 0.294400
vt 0.190916 0.998106
vt 0.711388 0.465264
vt 0.079954 0.514007
vt 0.990219 0.498709
vt 0.085161 0.300145
vt 0.226765 0.996844
vt 0.997944 0.338069
vt 0.205665 0.917917
vt 0.998776 0.301070
vt 0.555960 0.001619
vt 0.777009 0.473452
vt 0.557046 0.143084
vt 0.632988 0.347773
vt 0.556989 0.271384
vt 0.557046 0.175203
vt 0.622377 0.363947
vt 0.555717 0.069237
vt 0.654914 0.365664
vt 0.724323 0.291883
vt 0.262234 0.510259
vt 0.864934 0.175712
vt 0.129319 0.510259
vt 0.691870 0.291215
vt 0.837169 0.143785
vt 0.928348 0.473757
vt 0.835016 0.001996
vt 0.679713 0.175506
vt 0.835189 0.082091
vt 0.729594 0.277525
vt 0.669195 0.349410
vt 0.129319 0.690560
vt 0.262234 0.690560
vt 0.677835 0.364225
vt 0.661467 0.292695
vt 0.134737 0.542015
vt 0.297758 0.174397
vt 0.709447 0.295302
vt 0.202393 0.542015
vt 0.570869 0.361228
vt 0.202393 0.693651
vt 0.590576 0.345182
vt 0.134737 0.693651
vt 0.375132 0.278564
vt 0.649994 0.590469
vt 0.464114 0.704935
vt 0.527829 0.590206
vt 0.000977 0.704935
vt 0.000683 0.002254
vt 0.527828 0.475394
vt 0.999027 0.000757
vt 0.990219 0.474612
vt 0.005797 0.299092
vt 0.299519 0.000653
vt 0.649994 0.474498
vt 1.000533 0.141630
vt 0.007057 0.487417
vt 0.777009 0.590034
vt 0.000148 0.917917
vt 0.000659 0.144350
vt 0.651117 0.143075
vt 0.297758 0.143084
vt 0.999956 0.176724
vt 0.037457 0.537028
vt 0.678132 0.464405
vt 0.840920 0.589758
vt 0.998758 0.293248
vt 0.002200 0.998106
vt 0.000309 0.182204
vt 0.840920 0.472791
vt 0.648233 0.003396
vt 0.654394 0.404676
vt 0.759916 0.998872
vt 0.999653 0.998872
vt 0.759916 0.759135
vt 0.999653 0.759135
vt 0.759916 0.759135
vt 0.999652 0.759135
vt 0.759916 0.998871
vt 0.999652 0.998871
s 1
usemtl Material.001
f 24/33/1 140/221/2 4/7/3 6/10/4
f 124/189/5 106/159/6 12/19/7 2/3/8
f 106/158/6 107/160/9 13/20/10 12/18/7
f 140/221/2 105/156/11 3/6/12 4/7/3
f 107/160/9 26/37/13 8/12/13 13/20/10
f 115/171/14 10/14/15 5/8/16 104/154/17
f 131/206/18 24/33/1 6/10/4 14/21/19
f 5/9/16 59/99/20 61/103/21 9/13/22
f 132/207/23 18/26/24 116/173/25 137/214/26
f 7/11/27 112/168/28 55/92/29 141/223/30
f 135/212/31 23/32/32 21/29/33 16/23/34
f 28/40/35 130/202/36 17/25/37 15/22/38
f 132/207/23 28/40/35 15/22/38 18/26/24
f 141/223/30 55/92/29 51/83/39 1/2/40
f 1/1/40 51/82/39 54/90/41 10/15/15
f 11/16/42 7/11/27 20/28/43 125/191/44
f 44/65/45 46/69/46 77/121/47
f 121/181/48 16/23/34 21/29/33 22/31/49
f 76/120/50 140/222/2 24/34/1 19/27/51
f 116/173/25 16/23/34 121/181/48
f 126/193/52 125/191/44 20/28/43 22/30/49
f 135/212/31 76/120/50 19/27/51 23/32/32
f 103/152/53 107/161/9 124/189/5
f 132/208/23 137/215/26 104/155/17 102/151/54 28/41/35
f 9/13/22 61/103/21 58/97/55 3/5/12
f 26/37/13 27/38/56 129/199/57 25/35/47
f 14/21/19 128/198/58 25/36/47 131/206/18
f 49/77/59 57/96/60 56/93/61
f 8/12/13 26/37/13 25/35/47 128/197/58
f 105/156/11 140/221/2 17/24/37 130/203/36
f 18/26/24 15/22/38 76/120/50 135/212/31
f 23/32/32 19/27/51 75/119/62 136/213/63
f 136/213/63 75/119/62 27/39/56 134/211/64
f 29/42/65 31/44/65 32/45/65 30/43/65
f 33/46/65 35/48/65 36/49/65 34/47/65
f 110/166/66 47/72/67 50/80/68 111/167/69
f 120/180/70 62/104/71 37/50/72 118/178/73
f 113/169/74 63/105/75 44/64/45 108/162/76
f 39/55/77 59/100/20 54/91/41 53/87/78
f 109/164/79 111/167/69 50/80/68 40/58/80
f 49/78/59 50/79/68 47/73/67 48/76/81
f 53/88/78 54/90/41 51/82/39 52/84/82
f 38/52/83 42/61/84 40/58/80 50/80/68
f 110/165/66 52/85/82 55/92/29 112/168/28
f 52/85/82 51/83/39 55/92/29
f 61/103/21 64/106/85 45/66/86 58/97/55
f 117/176/87 53/89/78 119/179/88 41/59/89
f 42/60/84 38/53/83 60/101/90 56/94/61
f 63/105/75 65/108/91 46/70/46 44/64/45
f 38/54/83 50/81/68 49/77/59 60/102/90
f 74/118/13 65/109/91 42/60/84 56/94/61
f 40/58/80 42/61/84 65/108/91 63/105/75
f 109/164/79 40/58/80 63/105/75 113/169/74
f 117/176/87 41/59/89 62/104/71 120/180/70
f 66/110/92 67/111/92 69/113/92 68/112/92
f 70/114/92 71/115/92 73/117/92 72/116/92
f 26/37/13 107/160/9 134/210/64 27/38/56
f 58/98/55 45/67/86 118/177/73 37/51/72
f 139/218/93 103/152/53 124/189/5 123/186/94
f 8/12/13 128/197/58 77/122/47 74/118/13
f 127/196/19 44/65/45 77/121/47 128/198/58
f 74/118/13 77/122/47 46/71/46 65/109/91
f 75/119/62 131/205/18 129/200/57 27/39/56
f 43/62/95 64/106/85 61/103/21 59/99/20 39/56/77
f 134/210/64 107/160/9 103/153/53 139/219/93
f 18/26/24 135/212/31 16/23/34 116/173/25
f 102/151/54 105/157/11 130/204/36 28/41/35
f 60/102/90 49/77/59 56/93/61
f 82/128/96 88/135/96 89/136/97 83/129/97
f 80/125/98 86/132/98 87/133/4 81/126/4
f 78/123/99 84/130/99 85/131/100 79/124/100
f 83/129/97 89/136/97 84/130/99 78/123/99
f 81/127/4 87/134/4 88/135/96 82/128/96
f 79/124/100 85/131/100 86/132/98 80/125/98
f 94/142/101 95/143/102 101/150/102 100/149/101
f 92/139/103 93/140/4 99/147/4 98/146/103
f 90/137/99 91/138/104 97/145/104 96/144/99
f 95/143/102 90/137/99 96/144/99 101/150/102
f 93/141/4 94/142/101 100/149/101 99/148/4
f 91/138/104 92/139/103 98/146/103 97/145/104
f 41/59/89 109/164/79 113/169/74 62/104/71
f 47/74/67 110/165/66 112/168/28 48/75/81
f 53/89/78 52/86/82 119/179/88
f 62/104/71 113/169/74 108/162/76 37/50/72
f 52/86/82 110/166/66 111/167/69 119/179/88
f 121/182/48 114/170/105 122/185/106
f 22/30/49 20/28/43 114/170/105 121/182/48
f 139/220/93 123/188/94 136/213/63 134/211/64
f 11/16/42 48/75/81 112/168/28 7/11/27
f 116/174/25 121/183/48 122/184/106 115/172/14
f 124/190/5 125/192/44 126/194/52 123/187/94
f 23/32/32 136/213/63 123/188/94 21/29/33
f 43/63/95 117/176/87 120/180/70 64/107/85
f 64/107/85 120/180/70 118/178/73 45/68/86
f 137/216/26 116/175/25 115/171/14 104/154/17
f 41/59/89 119/179/88 111/167/69 109/164/79
f 43/63/95 39/57/77 53/89/78 117/176/87
f 19/27/51 24/34/1 131/205/18 75/119/62
f 15/22/38 17/25/37 140/222/2 76/120/50
f 22/31/49 21/29/33 123/188/94 126/195/52
f 44/65/45 127/196/19 133/209/4 108/163/76
f 54/91/41 59/100/20 5/8/16 10/14/15
f 124/189/5 107/161/9 106/159/6
f 9/13/22 3/5/12 105/157/11 102/151/54
f 56/94/61 13/20/10 8/12/13 74/118/13
f 37/51/72 138/217/3 3/6/12 58/98/55
f 57/95/60 12/18/7 13/20/10 56/94/61
f 131/206/18 25/36/47 129/201/57
f 49/77/59 2/3/8 12/19/7 57/96/60
f 108/163/76 133/209/4 138/217/3 37/51/72
f 1/1/40 10/15/15 115/172/14 122/184/106
f 141/223/30 1/2/40 122/185/106 114/170/105
f 7/11/27 141/223/30 114/170/105 20/28/43
f 5/9/16 9/13/22 102/151/54 104/155/17
f 49/78/59 48/76/81 11/17/42 2/4/8
f 124/190/5 2/4/8 11/17/42 125/192/44
f 142/224/65 144/226/65 145/227/65 143/225/65
f 146/228/92 147/229/92 149/231/92 148/230/92
