# Blender 3.4.1
# www.blender.org
mtllib VolumetricLight.mtl
o Cone
v 0.000000 -1.000000 -0.650000
v -0.000000 1.000000 -0.084723
v 0.282024 -1.000000 -0.585630
v 0.036760 1.000000 -0.076333
v 0.508190 -1.000000 -0.405268
v 0.066239 1.000000 -0.052824
v 0.633703 -1.000000 -0.144639
v 0.082599 1.000000 -0.018853
v 0.633703 -1.000000 0.144639
v 0.082599 1.000000 0.018853
v 0.508190 -1.000000 0.405268
v 0.066239 1.000000 0.052824
v 0.282024 -1.000000 0.585630
v 0.036760 1.000000 0.076333
v 0.000000 -1.000000 0.650000
v -0.000000 1.000000 0.084723
v -0.282024 -1.000000 0.585630
v -0.036760 1.000000 0.076333
v -0.508190 -1.000000 0.405268
v -0.066239 1.000000 0.052824
v -0.633703 -1.000000 0.144639
v -0.082599 1.000000 0.018853
v -0.633703 -1.000000 -0.144639
v -0.082599 1.000000 -0.018853
v -0.508190 -1.000000 -0.405268
v -0.066239 1.000000 -0.052824
v -0.282024 -1.000000 -0.585630
v -0.036760 1.000000 -0.076333
vn 0.2145 0.2657 -0.9399
vn 0.6011 0.2657 -0.7537
vn 0.8686 0.2657 -0.4183
vn 0.9641 0.2657 -0.0000
vn 0.8686 0.2657 0.4183
vn 0.6011 0.2657 0.7537
vn 0.2145 0.2657 0.9399
vn -0.2145 0.2657 0.9399
vn -0.6011 0.2657 0.7537
vn -0.8686 0.2657 0.4183
vn -0.9641 0.2657 -0.0000
vn -0.8686 0.2657 -0.4183
vn -0.6011 0.2657 -0.7537
vn -0.2145 0.2657 -0.9399
vt 0.037172 0.962828
vt 0.962828 0.962828
vt 0.037172 0.037172
vt 0.962828 0.037172
vt 0.103291 0.962828
vt 0.103291 0.037172
vt 0.169409 0.962828
vt 0.169409 0.037172
vt 0.235527 0.962828
vt 0.235527 0.037172
vt 0.301645 0.962828
vt 0.301645 0.037172
vt 0.367764 0.962828
vt 0.367763 0.037172
vt 0.433882 0.962828
vt 0.433882 0.037172
vt 0.500000 0.962828
vt 0.500000 0.037172
vt 0.566118 0.962828
vt 0.566118 0.037172
vt 0.632236 0.962828
vt 0.632236 0.037172
vt 0.698355 0.962828
vt 0.698355 0.037172
vt 0.764473 0.962828
vt 0.764473 0.037172
vt 0.830591 0.962828
vt 0.830591 0.037172
vt 0.896709 0.962828
vt 0.896709 0.037172
s 0
usemtl Material.001
f 1/1/1 2/3/1 4/6/1 3/5/1
f 3/5/2 4/6/2 6/8/2 5/7/2
f 5/7/3 6/8/3 8/10/3 7/9/3
f 7/9/4 8/10/4 10/12/4 9/11/4
f 9/11/5 10/12/5 12/14/5 11/13/5
f 11/13/6 12/14/6 14/16/6 13/15/6
f 13/15/7 14/16/7 16/18/7 15/17/7
f 15/17/8 16/18/8 18/20/8 17/19/8
f 17/19/9 18/20/9 20/22/9 19/21/9
f 19/21/10 20/22/10 22/24/10 21/23/10
f 21/23/11 22/24/11 24/26/11 23/25/11
f 23/25/12 24/26/12 26/28/12 25/27/12
f 25/27/13 26/28/13 28/30/13 27/29/13
f 27/29/14 28/30/14 2/4/14 1/2/14
o Cone.001
v -0.000000 -1.000000 -0.393021
v -0.000000 1.000000 -0.084723
v 0.170525 -1.000000 -0.354099
v 0.036760 1.000000 -0.076333
v 0.307276 -1.000000 -0.245044
v 0.066239 1.000000 -0.052824
v 0.383167 -1.000000 -0.087455
v 0.082599 1.000000 -0.018853
v 0.383167 -1.000000 0.087455
v 0.082599 1.000000 0.018853
v 0.307276 -1.000000 0.245044
v 0.066239 1.000000 0.052824
v 0.170525 -1.000000 0.354099
v 0.036760 1.000000 0.076333
v -0.000000 -1.000000 0.393021
v -0.000000 1.000000 0.084723
v -0.170525 -1.000000 0.354099
v -0.036760 1.000000 0.076333
v -0.307276 -1.000000 0.245044
v -0.066239 1.000000 0.052824
v -0.383167 -1.000000 0.087455
v -0.082599 1.000000 0.018853
v -0.383167 -1.000000 -0.087455
v -0.082599 1.000000 -0.018853
v -0.307276 -1.000000 -0.245044
v -0.066239 1.000000 -0.052824
v -0.170525 -1.000000 -0.354099
v -0.036760 1.000000 -0.076333
vn 0.2200 0.1486 -0.9641
vn 0.6166 0.1486 -0.7731
vn 0.8910 0.1486 -0.4291
vn 0.9889 0.1486 -0.0000
vn 0.8910 0.1486 0.4291
vn 0.6166 0.1486 0.7731
vn 0.2200 0.1486 0.9641
vn -0.2201 0.1486 0.9641
vn -0.6166 0.1486 0.7731
vn -0.8910 0.1486 0.4291
vn -0.9889 0.1486 -0.0000
vn -0.8910 0.1486 -0.4291
vn -0.6166 0.1486 -0.7731
vn -0.2201 0.1486 -0.9641
vt 0.037172 0.962828
vt 0.962828 0.962828
vt 0.037172 0.037172
vt 0.962828 0.037172
vt 0.103291 0.962828
vt 0.103291 0.037172
vt 0.169409 0.962828
vt 0.169409 0.037172
vt 0.235527 0.962828
vt 0.235527 0.037172
vt 0.301645 0.962828
vt 0.301645 0.037172
vt 0.367764 0.962828
vt 0.367763 0.037172
vt 0.433882 0.962828
vt 0.433882 0.037172
vt 0.500000 0.962828
vt 0.500000 0.037172
vt 0.566118 0.962828
vt 0.566118 0.037172
vt 0.632236 0.962828
vt 0.632236 0.037172
vt 0.698355 0.962828
vt 0.698355 0.037172
vt 0.764473 0.962828
vt 0.764473 0.037172
vt 0.830591 0.962828
vt 0.830591 0.037172
vt 0.896709 0.962828
vt 0.896709 0.037172
s 0
usemtl Material.002
f 29/31/15 30/33/15 32/36/15 31/35/15
f 31/35/16 32/36/16 34/38/16 33/37/16
f 33/37/17 34/38/17 36/40/17 35/39/17
f 35/39/18 36/40/18 38/42/18 37/41/18
f 37/41/19 38/42/19 40/44/19 39/43/19
f 39/43/20 40/44/20 42/46/20 41/45/20
f 41/45/21 42/46/21 44/48/21 43/47/21
f 43/47/22 44/48/22 46/50/22 45/49/22
f 45/49/23 46/50/23 48/52/23 47/51/23
f 47/51/24 48/52/24 50/54/24 49/53/24
f 49/53/25 50/54/25 52/56/25 51/55/25
f 51/55/26 52/56/26 54/58/26 53/57/26
f 53/57/27 54/58/27 56/60/27 55/59/27
f 55/59/28 56/60/28 30/34/28 29/32/28
